<?xml version="1.0" encoding="UTF-8" standalone="no"?>
<!DOCTYPE svg PUBLIC "-//W3C//DTD SVG 1.1//EN" "http://www.w3.org/Graphics/SVG/1.1/DTD/svg11.dtd">
<svg width="100%" height="100%" viewBox="0 0 1024 1024" version="1.1" xmlns="http://www.w3.org/2000/svg" xmlns:xlink="http://www.w3.org/1999/xlink" xml:space="preserve" xmlns:serif="http://www.serif.com/" style="fill-rule:evenodd;clip-rule:evenodd;stroke-linecap:round;stroke-linejoin:round;stroke-miterlimit:1.5;">
    <g id="Folder">
        <path id="Folder-Back" serif:id="Folder Back" d="M64,416L64,148C64,136.954 72.954,128 84,128C154.866,128 392.291,128 439.716,128C445.02,128 450.107,130.107 453.858,133.858C466.036,146.036 493.964,173.964 506.142,186.142C509.893,189.893 514.98,192 520.284,192L940,192C951.046,192 960,200.954 960,212C960,266.92 960,416 960,416L64,416Z" style="fill:url(#_Linear1);stroke:black;stroke-width:4.17px;"/>
        <path id="Folder-Front" serif:id="Folder Front" d="M64,896C64,896 39.373,501.975 33.328,405.248C32.984,399.737 34.932,394.33 38.712,390.306C42.493,386.282 47.768,384 53.289,384C107.538,384 248.964,384 281.333,384C285.661,384 289.871,382.596 293.333,380C314.155,364.384 389.845,307.616 410.667,292C414.129,289.404 418.339,288 422.667,288C478.926,288 874.635,288 970.92,288C976.406,288 981.652,290.254 985.429,294.235C989.205,298.215 991.18,303.572 990.892,309.051C985.252,416.206 960,896 960,896L64,896Z" style="fill:url(#_Linear2);stroke:black;stroke-width:8.33px;"/>
    </g>
    <g id="Layer1">
        <path d="M453,503L769.321,891.632L371,891.632L278,783L304,733" style="fill:rgb(95,87,18);"/>
        <path d="M252,686L299,733L367,703L393,535L342,512L252,686" style="fill:rgb(95,87,18);"/>
        <path d="M969,653L753.671,402.1L649,429L555,429L495.655,528L583,632.1L562,722L753.671,891.632L956.105,891.632" style="fill:rgb(95,87,18);"/>
    </g>
    <g id="Download-Icon" serif:id="Download Icon" opacity="0.8">
        <g transform="matrix(0.75,0,0,0.75,232,216)">
            <path d="M850,646.374C897.741,655.532 928,707.888 928,752C928,813.814 877.814,864 816,864C754.186,864 704,813.814 704,752C704,706.147 735.136,656.357 781,646.374L781,756.687L746,756.687L816,832L883,756.687L850,756.687L850,646.374Z" style="fill-opacity:0.8;"/>
        </g>
    </g>
    <g id="Text" transform="matrix(1.09703,2.77556e-17,0,1,-43.9958,-28.8998)">
        <g transform="matrix(400,0,0,400,262,731)">
            <path d="M0.177,0.25C0.145,0.25 0.118,0.242 0.097,0.225C0.076,0.208 0.065,0.184 0.065,0.153C0.065,0.115 0.08,0.085 0.111,0.062C0.142,0.039 0.181,0.019 0.228,0.004L0.24,-0.049C0.206,-0.012 0.166,0.006 0.12,0.006C0.082,0.006 0.05,-0.007 0.025,-0.033C0,-0.059 -0.013,-0.1 -0.013,-0.155C-0.013,-0.204 -0.003,-0.256 0.017,-0.311C0.036,-0.365 0.066,-0.411 0.105,-0.449C0.143,-0.486 0.19,-0.505 0.244,-0.505C0.271,-0.505 0.292,-0.5 0.305,-0.491C0.318,-0.482 0.325,-0.469 0.325,-0.454L0.325,-0.448L0.336,-0.5L0.48,-0.5L0.381,-0.036C0.413,-0.047 0.439,-0.063 0.458,-0.084C0.477,-0.105 0.494,-0.137 0.507,-0.179L0.549,-0.179C0.531,-0.12 0.507,-0.076 0.476,-0.049C0.445,-0.021 0.411,-0.002 0.372,0.008L0.357,0.08C0.344,0.145 0.321,0.189 0.288,0.214C0.255,0.238 0.218,0.25 0.177,0.25ZM0.185,-0.091C0.2,-0.091 0.216,-0.098 0.232,-0.112C0.248,-0.126 0.259,-0.145 0.265,-0.169L0.316,-0.406C0.316,-0.414 0.313,-0.422 0.306,-0.431C0.299,-0.439 0.289,-0.443 0.275,-0.443C0.248,-0.443 0.224,-0.428 0.203,-0.397C0.182,-0.366 0.165,-0.328 0.153,-0.285C0.141,-0.241 0.135,-0.202 0.135,-0.169C0.135,-0.136 0.14,-0.114 0.15,-0.105C0.159,-0.096 0.171,-0.091 0.185,-0.091ZM0.154,0.172C0.165,0.172 0.176,0.164 0.187,0.149C0.198,0.134 0.206,0.112 0.212,0.083L0.218,0.054C0.153,0.078 0.12,0.106 0.12,0.139C0.12,0.148 0.123,0.155 0.129,0.162C0.135,0.169 0.143,0.172 0.154,0.172Z" style="fill-rule:nonzero;"/>
        </g>
        <g transform="matrix(400,0,0,400,484.8,731)">
            <path d="M0.232,-0.668C0.19,-0.667 0.158,-0.651 0.136,-0.62C0.113,-0.589 0.102,-0.536 0.102,-0.461C0.102,-0.436 0.104,-0.419 0.109,-0.41C0.114,-0.4 0.116,-0.394 0.116,-0.393C0.08,-0.393 0.053,-0.401 0.036,-0.416C0.018,-0.431 0.009,-0.455 0.009,-0.49C0.009,-0.537 0.021,-0.581 0.044,-0.62C0.067,-0.659 0.105,-0.69 0.156,-0.714C0.207,-0.738 0.271,-0.75 0.35,-0.75C0.366,-0.75 0.387,-0.748 0.414,-0.745C0.462,-0.74 0.496,-0.738 0.516,-0.738C0.551,-0.738 0.581,-0.742 0.606,-0.75C0.604,-0.744 0.6,-0.731 0.595,-0.711C0.59,-0.69 0.58,-0.673 0.567,-0.659C0.553,-0.644 0.534,-0.635 0.511,-0.63C0.472,-0.63 0.425,-0.636 0.371,-0.649L0.329,-0.45L0.475,-0.45L0.459,-0.376L0.313,-0.376L0.232,0L0.088,0L0.232,-0.668Z" style="fill-rule:nonzero;"/>
        </g>
    </g>
    <defs>
        <linearGradient id="_Linear1" x1="0" y1="0" x2="1" y2="0" gradientUnits="userSpaceOnUse" gradientTransform="matrix(1.76349e-14,-288,288,1.76349e-14,288,416)"><stop offset="0" style="stop-color:rgb(35,35,35);stop-opacity:1"/><stop offset="0.19" style="stop-color:rgb(60,58,49);stop-opacity:1"/><stop offset="0.4" style="stop-color:rgb(84,80,62);stop-opacity:1"/><stop offset="1" style="stop-color:rgb(95,90,68);stop-opacity:1"/></linearGradient>
        <linearGradient id="_Linear2" x1="0" y1="0" x2="1" y2="0" gradientUnits="userSpaceOnUse" gradientTransform="matrix(3.72293e-14,608,-608,3.72293e-14,608,288)"><stop offset="0" style="stop-color:rgb(199,182,114);stop-opacity:1"/><stop offset="0.92" style="stop-color:rgb(149,132,67);stop-opacity:1"/><stop offset="1" style="stop-color:rgb(191,169,84);stop-opacity:1"/></linearGradient>
    </defs>
</svg>
